<svg height="480pt" viewBox="0 0 480.056 480" width="480pt" xmlns="http://www.w3.org/2000/svg"><path d="m480.039062 96.027344c-.027343-22.078125-17.917968-39.972656-40-40h-8.039062v16h8.039062c13.253907 0 24 10.746094 24 24v224h-448.039062v-224c0-13.253906 10.746094-24 24-24h8v-16h-8c-22.082031.027344-39.9726562 17.921875-40 40v256c.0273438 22.082031 17.917969 39.972656 40 40h148.617188l-26.21875 72h-26.398438v16h208v-16h-26.398438l-26.167968-72h148.621094c22.082031-.027344 39.976562-17.917969 40-40v-24zm-179.4375 368h-121.152343l26.191406-72h68.800781zm139.453126-88h-400.054688c-13.253906 0-24-10.746094-24-24v-16h448.046875v16c0 13.253906-10.738281 23.996094-23.992187 24zm0 0"/><path d="m80.046875 40.027344c0-13.253906 10.746094-24 24-24h272c13.257813 0 24 10.746094 24 24v264h16v-264c-.023437-22.078125-17.917969-39.9726565-40-40.0000002h-272c-22.078125.0273437-39.972656 17.9218752-40 40.0000002v264h16zm0 0"/><path d="m96.015625 32.027344h16v16h-16zm0 0"/><path d="m128.015625 32.027344h16v16h-16zm0 0"/><path d="m160.015625 32.027344h16v16h-16zm0 0"/><path d="m136 168.027344h16v16h-16zm0 0"/><path d="m288 280.027344c13.253906 0 24-10.746094 24-24v-49.75l25.945312-6.488282c3.558594-.894531 6.054688-4.089843 6.054688-7.761718v-32c0-3.667969-2.496094-6.867188-6.054688-7.757813l-25.945312-6.488281v-49.753906c-.089844-12.160156-9.265625-22.332032-21.351562-23.675782-12.089844-1.339843-23.269532 6.574219-26.023438 18.421876l-90.511719 45.253906h-38.113281c-20.949219-.039063-38.367188 16.125-39.882812 37.019531-1.519532 20.898437 13.378906 39.410156 34.113281 42.398437l22.273437 59.390626c1.171875 3.125 4.160156 5.195312 7.496094 5.191406h32c2.625.003906 5.082031-1.285156 6.578125-3.441406s1.839844-4.910157.917969-7.367188l-18.695313-49.847656 83.824219 41.914062c2.453125 10.941406 12.160156 18.722656 23.375 18.742188zm24-117.75 16 4v19.503906l-16 4zm-32-66.25c0-4.417969 3.582031-8 8-8s8 3.582031 8 8v160c0 4.417968-3.582031 8-8 8s-8-3.582032-8-8zm-168 80c0-13.253906 10.746094-24 24-24h32v48h-32c-13.253906 0-24-10.746094-24-24zm53.542969 88-18-48h14.914062l18 48zm98.457031-20.941406-80-40v-54.113282l80-40zm0 0"/><path d="m331.199219 262.429688 9.601562-12.800782 32 24-9.601562 12.800782zm0 0"/><path d="m331.222656 89.699219 32-24 9.601563 12.800781-32 24zm0 0"/><path d="m350.054688 223.785156 3.878906-15.519531 32 8-3.878906 15.519531zm0 0"/><path d="m350.054688 128.269531 32-8 3.878906 15.523438-32 8zm0 0"/></svg>