<svg id="Layer_3" enable-background="new 0 0 64 64" height="512" viewBox="0 0 64 64" width="512" xmlns="http://www.w3.org/2000/svg"><circle cx="8" cy="58" r="1"/><path d="m63 1h-62v42h15.744c.211.397.441.782.685 1.157l-1.929 1.929-1.5-1.5-9.464 9.464c-.991.99-1.536 2.306-1.536 3.708 0 2.89 2.352 5.242 5.243 5.242 1.399 0 2.716-.545 3.707-1.535l9.464-9.465-1.5-1.5 1.929-1.929c2.351 1.531 5.149 2.429 8.157 2.429 5.743 0 10.737-3.248 13.256-8h19.744zm-2 2v6h-58v-6zm-50.464 57.05c-.613.613-1.428.95-2.293.95-1.788 0-3.243-1.454-3.243-3.242 0-.867.337-1.681.95-2.293l8.05-8.051 4.586 4.586zm7.964-10.964-1.586-1.586 1.729-1.729c.489.567 1.019 1.097 1.586 1.586zm11.5-.086c-7.168 0-13-5.832-13-13s5.832-13 13-13 13 5.832 13 13-5.832 13-13 13zm6.653-29.209 3.138-3.139 2.158 1.296 1.22-.496.612-2.452h4.438l.487 1.949.203.535 1.142.464 2.158-1.296 3.138 3.139-1.296 2.159.503 1.22 2.446.611v4.438l-1.949.487-.534.205-.466 1.139 1.296 2.159-3.138 3.139-2.158-1.296-1.22.496-.612 2.452h-3.269c.021-.332.05-.662.05-1 0-1.078-.12-2.128-.337-3.143.441.086.887.143 1.337.143 3.86 0 7-3.141 7-7s-3.14-7-7-7c-3.24 0-5.965 2.216-6.759 5.209-.55-.432-1.13-.825-1.738-1.177l.446-1.081zm7.325 8.411c.535.491 1.241.798 2.022.798 1.654 0 3-1.346 3-3s-1.346-3-3-3-3 1.346-3 3c0 .148.023.291.044.433l-1.072.567c-.3-.399-.619-.781-.957-1.148.08-2.687 2.279-4.852 4.985-4.852 2.757 0 5 2.243 5 5s-2.243 5-5 5c-.703 0-1.398-.158-2.038-.445-.254-.648-.545-1.276-.883-1.878zm1.022-2.202c0-.552.449-1 1-1s1 .448 1 1-.449 1-1 1-1-.448-1-1zm-.875 15c.231-.65.433-1.313.573-2h5.084l.603-2.416 2.134 1.281 5.347-5.346-1.281-2.136 2.415-.602v-7.562l-2.416-.603 1.281-2.136-5.347-5.346-2.134 1.281-.603-2.415h-7.562l-.603 2.416-2.134-1.281-5.347 5.346 1.281 2.135-.669.167c-1.494-.501-3.087-.783-4.747-.783-3.045 0-5.877.917-8.245 2.482l-4.274-5.8c.327-.479.519-1.059.519-1.682 0-1.654-1.346-3-3-3s-3 1.346-3 3c0 .649.212 1.246.563 1.737l-3.768 5.383c-.255-.07-.518-.12-.795-.12-1.654 0-3 1.346-3 3s1.346 3 3 3 3-1.346 3-3c0-.649-.212-1.246-.564-1.737l3.769-5.383c.255.07.518.12.795.12.302 0 .588-.058.864-.142l4.304 5.841c-3.159 2.752-5.168 6.792-5.168 11.301 0 1.755.319 3.433.875 5h-12.875v-30h58v30zm-30.125-25c0-.552.449-1 1-1s1 .448 1 1-.449 1-1 1-1-.448-1-1zm-5 10c0 .552-.449 1-1 1s-1-.448-1-1 .449-1 1-1 1 .448 1 1z"/><path d="m5 5h2v2h-2z"/><path d="m9 5h2v2h-2z"/><path d="m13 5h2v2h-2z"/><path d="m30 25c-6.065 0-11 4.935-11 11s4.935 11 11 11 11-4.935 11-11-4.935-11-11-11zm6.645 4.952-5.694 3.788c-.526-.455-1.203-.74-1.951-.74-.277 0-.541.05-.796.121l-2.949-4.754c1.38-.861 3.003-1.367 4.745-1.367 2.633 0 4.998 1.143 6.645 2.952zm-7.645 5.048c.551 0 1 .448 1 1s-.449 1-1 1-1-.448-1-1 .449-1 1-1zm-5.328-5.391 2.889 4.657c-.35.491-.561 1.087-.561 1.734 0 1.654 1.346 3 3 3s3-1.346 3-3c0-.178-.023-.351-.053-.52l5.877-3.91c.745 1.309 1.176 2.819 1.176 4.43 0 1.849-.562 3.569-1.522 5h-14.956c-.96-1.431-1.522-3.151-1.522-5 0-2.498 1.024-4.759 2.672-6.391zm.684 13.391h11.289c-1.545 1.248-3.508 2-5.644 2s-4.1-.752-5.645-2z"/><path d="m5 31h8v2h-8z"/><path d="m5 35h8v2h-8z"/></svg>